<?xml version="1.0" encoding="UTF-8" standalone="no"?>
<!-- Creator: CorelDRAW X6 -->

<svg
   xmlns:dc="http://purl.org/dc/elements/1.1/"
   xmlns:cc="http://creativecommons.org/ns#"
   xmlns:rdf="http://www.w3.org/1999/02/22-rdf-syntax-ns#"
   xmlns:svg="http://www.w3.org/2000/svg"
   xmlns="http://www.w3.org/2000/svg"
   xmlns:sodipodi="http://sodipodi.sourceforge.net/DTD/sodipodi-0.dtd"
   xmlns:inkscape="http://www.inkscape.org/namespaces/inkscape"
   xml:space="preserve"
   width="241.853mm"
   height="241.853mm"
   version="1.0"
   style="shape-rendering:geometricPrecision; text-rendering:geometricPrecision; image-rendering:optimizeQuality; fill-rule:evenodd; clip-rule:evenodd"
   viewBox="0 0 880751 880751"
   id="svg3069"
   inkscape:version="0.48.5 r10040"
   sodipodi:docname="кружок2.svg"
   inkscape:export-filename="E:\Dropbox\Web_development\mh_dnbhub.com\_изображения\03 logos\кружок3.png"
   inkscape:export-xdpi="300.14999"
   inkscape:export-ydpi="300.14999"><metadata
   id="metadata3151"><rdf:RDF><cc:Work
       rdf:about=""><dc:format>image/svg+xml</dc:format><dc:type
         rdf:resource="http://purl.org/dc/dcmitype/StillImage" /><dc:title></dc:title></cc:Work></rdf:RDF></metadata><sodipodi:namedview
   pagecolor="#ffffff"
   bordercolor="#666666"
   borderopacity="1"
   objecttolerance="10"
   gridtolerance="10"
   guidetolerance="10"
   inkscape:pageopacity="0"
   inkscape:pageshadow="2"
   inkscape:window-width="1366"
   inkscape:window-height="715"
   id="namedview3149"
   showgrid="false"
   inkscape:zoom="0.58951158"
   inkscape:cx="428.47971"
   inkscape:cy="428.47971"
   inkscape:window-x="-8"
   inkscape:window-y="22"
   inkscape:window-maximized="1"
   inkscape:current-layer="svg3069" />
 <defs
   id="defs3071">
  <style
   type="text/css"
   id="style3073">
   
    .str1 {stroke:#FFED00;stroke-width:277.496}
    .str2 {stroke:#2B2A29;stroke-width:728.336}
    .str0 {stroke:#FFED00;stroke-width:728.336}
    .fil2 {fill:none}
    .fil1 {fill:#2B2A29}
    .fil5 {fill:#FFED00}
    .fil6 {fill:#2F422E}
    .fil3 {fill:#567553}
    .fil4 {fill:#93913A}
    .fil0 {fill:#FFED00}
    .fil7 {fill:#2B2A29;fill-rule:nonzero}
    .fil8 {fill:#BBBBBB;fill-rule:nonzero}
   
  </style>
    <clipPath
   id="id0">
     <path
   d="M327397 250100l0 380551 70907 -8 -523 -151307 85910 -561 609 139575 37965 -9763c57032,-40433 96919,-226647 -3631,-342209l-35748 -5237 -92 141211 -83731 -62 -208 -152167 -71459 -23z"
   id="path3076" />
    </clipPath>
 
  
  
  
 </defs>
 <circle
   style="fill:#ffed00;stroke:#ffed00;stroke-width:728.33599854"
   sodipodi:ry="440011"
   sodipodi:rx="440011"
   sodipodi:cy="440375"
   sodipodi:cx="440375"
   id="circle3080"
   r="440011"
   cy="440375"
   cx="440375"
   class="fil0 str0" /><g
   id="_372350144"
   transform="translate(24666.31,0)">
   <path
   style="fill:#2b2a29"
   inkscape:connector-curvature="0"
   id="path3083"
   d="m 327397,250100 0,380551 70907,-8 -523,-151307 85910,-561 609,139575 37965,-9763 c 57032,-40433 96919,-226647 -3631,-342209 l -35748,-5237 -92,141211 -83731,-62 -208,-152167 -71459,-23 z"
   class="fil1" />
   <g
   clip-path="url(#id0)"
   id="g3085">
    <g
   id="g3087">
     <g
   id="g3089">
      <rect
   style="fill:none"
   y="0"
   x="0"
   id="rect3091"
   height="209664"
   width="335308"
   transform="matrix(0.0224381,-7.92149,12.4276,-0.251693,-733366,1783600)"
   class="fil2" />
      <line
   style="fill:none"
   id="line3093"
   y2="763015"
   x2="1875002"
   y1="1783595"
   x1="-733366"
   class="fil2" />
      <line
   style="fill:none"
   id="line3095"
   y2="182940"
   x2="1876645"
   y1="1182150"
   x1="-731663"
   class="fil2" />
      <line
   style="fill:none"
   id="line3097"
   y2="-384924"
   x2="1878254"
   y1="620393"
   x1="-730071"
   class="fil2" />
      <line
   style="fill:none"
   id="line3099"
   y2="-921808"
   x2="1706565"
   y1="48607"
   x1="-732647"
   class="fil2" />
      <line
   style="fill:none"
   id="line3101"
   y2="-891849"
   x2="227316"
   y1="-509228"
   x1="-726872"
   class="fil2" />
      <line
   style="fill:none"
   id="line3103"
   y2="1349197"
   x2="1873342"
   y1="1751292"
   x1="861621"
   class="fil2" />
      <polygon
   style="fill:#567553"
   id="polygon3105"
   points="1872325,1348883 860603,1750978 1872261,1730824 "
   class="fil3" />
      <polygon
   style="fill:#567553"
   id="polygon3107"
   points="-733366,1783595 1875002,763015 1876645,182940 -731663,1182150 "
   class="fil3" />
      <polygon
   style="fill:#567553"
   id="polygon3109"
   points="1878254,-384924 1879785,-925316 1706566,-921808 -728447,46936 -730071,620393 "
   class="fil3" />
      <polygon
   style="fill:#567553"
   id="polygon3111"
   points="-726872,-509228 227316,-891849 -725842,-872545 "
   class="fil3" />
      <polygon
   style="fill:#93913a"
   id="polygon3113"
   points="1875002,763015 -733366,1783595 861621,1751292 1873342,1349197 "
   class="fil4" />
      <polygon
   style="fill:#93913a"
   id="polygon3115"
   points="-731663,1182150 1876645,182940 1878254,-384924 -730071,620393 "
   class="fil4" />
      <polygon
   style="fill:#93913a"
   id="polygon3117"
   points="-728447,46936 1706566,-921808 227316,-891849 -726872,-509228 "
   class="fil4" />
      <polygon
   style="fill:#ffed00"
   id="polygon3119"
   points="1875002,763015 -733366,1783595 861621,1751292 1873342,1349197 "
   class="fil5" />
      <polygon
   style="fill:#ffed00"
   id="polygon3121"
   points="-731663,1182150 1876645,182940 1878254,-384924 -730071,620393 "
   class="fil5" />
      <polygon
   style="fill:#ffed00"
   id="polygon3123"
   points="-728447,46936 1706566,-921808 227316,-891849 -726872,-509228 "
   class="fil5" />
      <polygon
   style="fill:#2f422e"
   id="polygon3125"
   points="1875002,763014 1876645,182939 -731664,1182151 -733368,1783595 "
   class="fil6" />
      <polygon
   style="fill:#2f422e"
   id="polygon3127"
   points="1878254,-384925 1879785,-925316 1706567,-921808 -728449,46937 -730073,620395 "
   class="fil6" />
      <polygon
   style="fill:#2f422e"
   id="polygon3129"
   points="-726873,-509229 227317,-891849 -725844,-872545 "
   class="fil6" />
      <polygon
   style="fill:#2f422e"
   id="polygon3131"
   points="1872324,1349602 862498,1750942 1872261,1730824 "
   class="fil6" />
     </g>
    </g>
   </g>
   <path
   style="fill:none;stroke:#ffed00;stroke-width:277.4960022"
   inkscape:connector-curvature="0"
   id="path3133"
   d="m 327397,250100 0,380551 70907,-8 -523,-151307 85910,-561 609,139575 37965,-9763 c 57032,-40433 96919,-226647 -3631,-342209 l -35748,-5237 -92,141211 -83731,-62 -208,-152167 -71459,-23 z"
   class="fil2 str1" />
   <path
   style="fill:#2b2a29;fill-rule:nonzero"
   inkscape:connector-curvature="0"
   id="path3135"
   d="m 470655,153678 c 197937,0 252413,197988 249993,285666 -2978,108072 -46565,289683 -252853,289683 l -292252,0 0,-575349 295112,0 z M 571366,439344 C 568337,373584 547846,249734 425054,249734 l -97657,0 0,381283 90956,0 c 132158,0 156439,-117054 153013,-191673 z"
   class="fil7" />
   <path
   style="fill:#2f422e;stroke:#2b2a29;stroke-width:728.33599854"
   inkscape:connector-curvature="0"
   id="path3137"
   d="m 482794,402351 92,-141211 c -16177,-7229 -35279,-11407 -57832,-11407 l -97658,0 0,367 71459,23 207,152166 83731,62 z"
   class="fil6 str2" />
   <path
   style="fill:#2f422e;stroke:#2b2a29;stroke-width:728.33599854"
   inkscape:connector-curvature="0"
   id="path3139"
   d="m 482794,402351 92,-141211 c -16177,-7229 -35279,-11407 -57832,-11407 l -97658,0 0,367 71459,23 207,152166 83731,62 z"
   class="fil6 str2" />
   <path
   style="fill:#2b2a29;stroke:#2b2a29;stroke-width:728.33599854"
   inkscape:connector-curvature="0"
   id="path3141"
   d="m 482794,402351 92,-141211 c -16177,-7229 -35279,-11407 -57832,-11407 l -97658,0 0,367 71459,23 207,152166 83731,62 z"
   class="fil1 str2" />
   <path
   style="fill:#2f422e;stroke:#2b2a29;stroke-width:728.33599854"
   inkscape:connector-curvature="0"
   id="path3143"
   d="m 483691,478775 -85911,560 523,151307 -70907,8 0,366 90957,0 c 26858,0 49260,-4834 67881,-13165 l -1934,497 -609,-139575 z"
   class="fil6 str2" />
   <path
   style="fill:#2b2a29;stroke:#2b2a29;stroke-width:728.33599854"
   inkscape:connector-curvature="0"
   id="path3145"
   d="m 483691,478775 -85911,560 523,151307 -70907,8 0,366 90957,0 c 26858,0 49260,-4834 67881,-13165 l -1934,497 -609,-139575 z"
   class="fil1 str2" />
   <path
   style="fill:#bbbbbb;fill-rule:nonzero"
   inkscape:connector-curvature="0"
   id="path3147"
   d="m 209298,680381 153,-29953 c 34,-6759 570,-11908 1628,-15440 1423,-4747 3942,-8824 7550,-12193 3593,-3391 7996,-5941 13204,-7700 5187,-1732 11602,-2589 19203,-2550 6695,34 12437,899 17268,2586 5913,2062 10679,4975 14310,8762 2767,2855 4902,6715 6427,11547 1134,3624 1678,8451 1647,14513 l -157,30842 -81233,-414 z m 13811,-16402 53779,274 62,-12216 c 23,-4562 -223,-7859 -727,-9883 -646,-2673 -1771,-4881 -3349,-6626 -1578,-1766 -4181,-3205 -7810,-4318 -3623,-1139 -8594,-1711 -14871,-1743 -6277,-32 -11082,491 -14454,1594 -3372,1076 -5990,2617 -7892,4596 -1881,1979 -3180,4487 -3855,7555 -521,2270 -812,6755 -846,13418 l -38,7349 z m 67840,-65221 -81233,-414 81,-15941 54608,-33197 -54438,-277 78,-15223 81233,414 -84,16456 -53566,32693 53398,272 -78,15217 z m -80815,-82446 166,-32531 c 33,-6459 325,-11244 867,-14404 568,-3181 1697,-5989 3393,-8484 1712,-2489 3974,-4563 6802,-6210 2823,-1658 6005,-2473 9500,-2455 3784,19 7279,1061 10426,3125 3163,2058 5512,4852 7087,8366 1478,-4934 3957,-8712 7450,-11363 3492,-2635 7583,-3939 12290,-3915 3709,19 7296,890 10788,2633 3486,1739 6272,4101 8358,7102 2064,2985 3332,6664 3803,11040 270,2730 424,9334 446,19809 l -141,27701 -81233,-414 z m 13586,-16403 18718,95 55,-10758 c 32,-6384 -38,-10362 -224,-11912 -307,-2805 -1261,-5024 -2855,-6634 -1600,-1622 -3697,-2431 -6307,-2444 -2514,-13 -4538,679 -6116,2054 -1578,1375 -2532,3434 -2867,6161 -196,1623 -316,6296 -355,14004 l -48,9434 z m 32220,164 21784,111 78,-15223 c 30,-5912 -122,-9676 -436,-11270 -438,-2441 -1510,-4441 -3223,-5983 -1729,-1542 -4013,-2331 -6908,-2346 -2455,-12 -4522,562 -6227,1753 -1710,1160 -2968,2874 -3752,5111 -788,2226 -1210,7091 -1248,14568 l -68,13277 z m 35845,-65385 -81233,-414 84,-16472 31995,163 164,-32038 -31995,-163 84,-16472 81233,414 -84,16472 -35511,-181 -164,32038 35511,181 -84,16472 z m -80815,-82451 84,-16472 44023,224 c 6995,36 11515,-150 13575,-536 3332,-685 6026,-2323 8044,-4917 2039,-2627 3060,-6197 3083,-10742 23,-4599 -908,-8088 -2804,-10445 -1896,-2358 -4215,-3768 -6995,-4254 -2774,-491 -7372,-761 -13799,-794 l -44966,-229 84,-16472 42715,218 c 9755,50 16657,524 20678,1429 4026,910 7421,2563 10186,4957 2770,2383 4946,5573 6571,9553 1625,4007 2430,9200 2397,15616 -40,7745 -959,13610 -2775,17594 -1816,3984 -4158,7135 -7043,9452 -2885,2312 -5884,3813 -9044,4537 -4658,1054 -11543,1550 -20634,1503 l -43380,-221 z m 418,-82037 166,-32525 c 33,-6459 325,-11244 867,-14404 568,-3181 1698,-5990 3393,-8484 1712,-2489 3974,-4563 6802,-6210 2823,-1658 6005,-2473 9500,-2455 3784,19 7279,1061 10426,3125 3163,2058 5512,4852 7086,8366 1478,-4935 3957,-8712 7450,-11364 3492,-2635 7583,-3938 12290,-3915 3709,19 7296,890 10788,2633 3486,1739 6272,4101 8358,7102 2064,2985 3332,6664 3803,11040 270,2730 424,9334 446,19809 l -141,27696 -81233,-414 z m 13586,-16403 18718,95 55,-10752 c 32,-6384 -38,-10362 -223,-11912 -307,-2805 -1261,-5024 -2855,-6640 -1600,-1617 -3697,-2426 -6307,-2439 -2514,-13 -4538,679 -6116,2054 -1578,1375 -2531,3434 -2867,6161 -196,1623 -316,6297 -355,14004 l -48,9429 z m 32220,164 21784,111 78,-15217 c 30,-5912 -122,-9681 -436,-11270 -438,-2441 -1511,-4441 -3223,-5983 -1729,-1542 -4014,-2331 -6908,-2345 -2455,-13 -4522,561 -6227,1753 -1710,1160 -2968,2874 -3751,5111 -789,2226 -1210,7085 -1248,14568 l -68,13272 z"
   class="fil8" />
  </g>
</svg>