<?xml version="1.0" encoding="UTF-8" standalone="no"?>
<!-- Creator: CorelDRAW X6 -->

<svg
   xmlns:dc="http://purl.org/dc/elements/1.1/"
   xmlns:cc="http://creativecommons.org/ns#"
   xmlns:rdf="http://www.w3.org/1999/02/22-rdf-syntax-ns#"
   xmlns:svg="http://www.w3.org/2000/svg"
   xmlns="http://www.w3.org/2000/svg"
   xmlns:sodipodi="http://sodipodi.sourceforge.net/DTD/sodipodi-0.dtd"
   xmlns:inkscape="http://www.inkscape.org/namespaces/inkscape"
   xml:space="preserve"
   width="241.853mm"
   height="241.853mm"
   version="1.0"
   style="shape-rendering:geometricPrecision; text-rendering:geometricPrecision; image-rendering:optimizeQuality; fill-rule:evenodd; clip-rule:evenodd"
   viewBox="0 0 880751 880751"
   id="svg3069"
   inkscape:version="0.48.5 r10040"
   sodipodi:docname="DH_logo_v_round_bg_greyscale.svg"
   inkscape:export-filename="E:\Dropbox\Web_development\mh_dnbhub.com\_изображения\03 logos\кружок3.png"
   inkscape:export-xdpi="300.14999"
   inkscape:export-ydpi="300.14999"><metadata
   id="metadata3151"><rdf:RDF><cc:Work
       rdf:about=""><dc:format>image/svg+xml</dc:format><dc:type
         rdf:resource="http://purl.org/dc/dcmitype/StillImage" /><dc:title></dc:title></cc:Work></rdf:RDF></metadata><sodipodi:namedview
   pagecolor="#ffffff"
   bordercolor="#666666"
   borderopacity="1"
   objecttolerance="10"
   gridtolerance="10"
   guidetolerance="10"
   inkscape:pageopacity="0"
   inkscape:pageshadow="2"
   inkscape:window-width="1366"
   inkscape:window-height="715"
   id="namedview3149"
   showgrid="false"
   inkscape:zoom="0.45254834"
   inkscape:cx="812.16528"
   inkscape:cy="431.44137"
   inkscape:window-x="-8"
   inkscape:window-y="22"
   inkscape:window-maximized="1"
   inkscape:current-layer="svg3069" />
 <defs
   id="defs3071">
  <style
   type="text/css"
   id="style3073">
   
    .str1 {stroke:#FFED00;stroke-width:277.496}
    .str2 {stroke:#2B2A29;stroke-width:728.336}
    .str0 {stroke:#FFED00;stroke-width:728.336}
    .fil2 {fill:none}
    .fil1 {fill:#2B2A29}
    .fil5 {fill:#FFED00}
    .fil6 {fill:#2F422E}
    .fil3 {fill:#567553}
    .fil4 {fill:#93913A}
    .fil0 {fill:#FFED00}
    .fil7 {fill:#2B2A29;fill-rule:nonzero}
    .fil8 {fill:#BBBBBB;fill-rule:nonzero}
   
  </style>
    <clipPath
   id="id0">
     <path
   d="M327397 250100l0 380551 70907 -8 -523 -151307 85910 -561 609 139575 37965 -9763c57032,-40433 96919,-226647 -3631,-342209l-35748 -5237 -92 141211 -83731 -62 -208 -152167 -71459 -23z"
   id="path3076" />
    </clipPath>
 
  
  
  
 
   
   
   
   
   
   
   
   
   
   
  
    
   </defs>
 <g
   id="g3845"><path
     transform="translate(24666.31,0)"
     style="fill:#2b2a29"
     inkscape:connector-curvature="0"
     id="path3083"
     d="M 327397,250100 327397,630651 398304,630643 397781,479336 483691,478775 484300,618350 522265,608587 C 579297,568154 619184,381940 518634,266378 L 482886,261141 482794,402352 399063,402290 398855,250123 327396,250100 z"
     class="fil1" /><path
     transform="translate(24666.31,0)"
     style="fill:none;stroke:#ffed00;stroke-width:277.4960022"
     inkscape:connector-curvature="0"
     id="path3133"
     d="M 327397,250100 327397,630651 398304,630643 397781,479336 483691,478775 484300,618350 522265,608587 C 579297,568154 619184,381940 518634,266378 L 482886,261141 482794,402352 399063,402290 398855,250123 327396,250100 z"
     class="fil2 str1" /><rect
     transform="scale(1027.7628,1027.7628)"
     y="229.40215"
     x="327.0369"
     height="413.21552"
     width="278.42331"
     id="rect3843"
     style="fill:#bbbbbb;fill-opacity:1;stroke:#ffed00;stroke-width:0.70899999;stroke-miterlimit:4;stroke-opacity:1;stroke-dasharray:none" /><path
     transform="translate(24666.31,0)"
     style="fill:#2b2a29;fill-rule:nonzero"
     inkscape:connector-curvature="0"
     id="path3135"
     d="M 470655,153678 C 668592,153678 723068,351666 720648,439344 717670,547416 674083,729027 467795,729027 L 175543,729027 175543,153678 470655,153678 z M 571366,439344 C 568337,373584 547846,249734 425054,249734 L 327397,249734 327397,631017 418353,631017 C 550511,631017 574792,513963 571366,439344 z"
     class="fil7" /><path
     transform="translate(24666.31,0)"
     style="fill:#2f422e;stroke:#2b2a29;stroke-width:728.33599854"
     inkscape:connector-curvature="0"
     id="path3137"
     d="M 482794,402351 482886,261140 C 466709,253911 447607,249733 425054,249733 L 327396,249733 327396,250100 398855,250123 399062,402289 482793,402351 z"
     class="fil6 str2" /><path
     transform="translate(24666.31,0)"
     style="fill:#2f422e;stroke:#2b2a29;stroke-width:728.33599854"
     inkscape:connector-curvature="0"
     id="path3139"
     d="M 482794,402351 482886,261140 C 466709,253911 447607,249733 425054,249733 L 327396,249733 327396,250100 398855,250123 399062,402289 482793,402351 z"
     class="fil6 str2" /><path
     transform="translate(24666.31,0)"
     style="fill:#2b2a29;stroke:#2b2a29;stroke-width:728.33599854"
     inkscape:connector-curvature="0"
     id="path3141"
     d="M 482794,402351 482886,261140 C 466709,253911 447607,249733 425054,249733 L 327396,249733 327396,250100 398855,250123 399062,402289 482793,402351 z"
     class="fil1 str2" /><path
     transform="translate(24666.31,0)"
     style="fill:#2f422e;stroke:#2b2a29;stroke-width:728.33599854"
     inkscape:connector-curvature="0"
     id="path3143"
     d="M 483691,478775 397780,479335 398303,630642 327396,630650 327396,631016 418353,631016 C 445211,631016 467613,626182 486234,617851 L 484300,618348 483691,478773 z"
     class="fil6 str2" /><path
     transform="translate(24666.31,0)"
     style="fill:#2b2a29;stroke:#2b2a29;stroke-width:728.33599854"
     inkscape:connector-curvature="0"
     id="path3145"
     d="M 483691,478775 397780,479335 398303,630642 327396,630650 327396,631016 418353,631016 C 445211,631016 467613,626182 486234,617851 L 484300,618348 483691,478773 z"
     class="fil1 str2" /><path
     transform="translate(24666.31,0)"
     style="fill:#bbbbbb;fill-rule:nonzero"
     inkscape:connector-curvature="0"
     id="path3147"
     d="M 209298,680381 209451,650428 C 209485,643669 210021,638520 211079,634988 212502,630241 215021,626164 218629,622795 222222,619404 226625,616854 231833,615095 237020,613363 243435,612506 251036,612545 257731,612579 263473,613444 268304,615131 274217,617193 278983,620106 282614,623893 285381,626748 287516,630608 289041,635440 290175,639064 290719,643891 290688,649953 L 290531,680795 209298,680381 z M 223109,663979 276888,664253 276950,652037 C 276973,647475 276727,644178 276223,642154 275577,639481 274452,637273 272874,635528 271296,633762 268693,632323 265064,631210 261441,630071 256470,629499 250193,629467 243916,629435 239111,629958 235739,631061 232367,632137 229749,633678 227847,635657 225966,637636 224667,640144 223992,643212 223471,645482 223180,649967 223146,656630 L 223108,663979 z M 290949,598758 209716,598344 209797,582403 264405,549206 209967,548929 210045,533706 291278,534120 291194,550576 237628,583269 291026,583541 290948,598758 z M 210134,516312 210300,483781 C 210333,477322 210625,472537 211167,469377 211735,466196 212864,463388 214560,460893 216272,458404 218534,456330 221362,454683 224185,453025 227367,452210 230862,452228 234646,452247 238141,453289 241288,455353 244451,457411 246800,460205 248375,463719 249853,458785 252332,455007 255825,452356 259317,449721 263408,448417 268115,448441 271824,448460 275411,449331 278903,451074 282389,452813 285175,455175 287261,458176 289325,461161 290593,464840 291064,469216 291334,471946 291488,478550 291510,489025 L 291369,516726 210136,516312 z M 223720,499909 242438,500004 242493,489246 C 242525,482862 242455,478884 242269,477334 241962,474529 241008,472310 239414,470700 237814,469078 235717,468269 233107,468256 230593,468243 228569,468935 226991,470310 225413,471685 224459,473744 224124,476471 223928,478094 223808,482767 223769,490475 L 223721,499909 z M 255940,500073 277724,500184 277802,484961 C 277832,479049 277680,475285 277366,473691 276928,471250 275856,469250 274143,467708 272414,466166 270130,465377 267235,465362 264780,465350 262713,465924 261008,467115 259298,468275 258040,469989 257256,472226 256468,474452 256046,479317 256008,486794 L 255940,500071 z M 291785,434688 210552,434274 210636,417802 242631,417965 242795,385927 210800,385764 210884,369292 292117,369706 292033,386178 256522,385997 256358,418035 291869,418216 291785,434688 z M 210970,352237 211054,335765 255077,335989 C 262072,336025 266592,335839 268652,335453 271984,334768 274678,333130 276696,330536 278735,327909 279756,324339 279779,319794 279802,315195 278871,311706 276975,309349 275079,306991 272760,305581 269980,305095 267206,304604 262608,304334 256181,304301 L 211215,304072 211299,287600 254014,287818 C 263769,287868 270671,288342 274692,289247 278718,290157 282113,291810 284878,294204 287648,296587 289824,299777 291449,303757 293074,307764 293879,312957 293846,319373 293806,327118 292887,332983 291071,336967 289255,340951 286913,344102 284028,346419 281143,348731 278144,350232 274984,350956 270326,352010 263441,352506 254350,352459 L 210970,352238 z M 211388,270200 211554,237675 C 211587,231216 211879,226431 212421,223271 212989,220090 214119,217281 215814,214787 217526,212298 219788,210224 222616,208577 225439,206919 228621,206104 232116,206122 235900,206141 239395,207183 242542,209247 245705,211305 248054,214099 249628,217613 251106,212678 253585,208901 257078,206249 260570,203614 264661,202311 269368,202334 273077,202353 276664,203224 280156,204967 283642,206706 286428,209068 288514,212069 290578,215054 291846,218733 292317,223109 292587,225839 292741,232443 292763,242918 L 292622,270614 211389,270200 z M 224974,253797 243692,253892 243747,243140 C 243779,236756 243709,232778 243524,231228 243217,228423 242263,226204 240669,224588 239069,222971 236972,222162 234362,222149 231848,222136 229824,222828 228246,224203 226668,225578 225715,227637 225379,230364 225183,231987 225063,236661 225024,244368 L 224976,253797 z M 257194,253961 278978,254072 279056,238855 C 279086,232943 278934,229174 278620,227585 278182,225144 277109,223144 275397,221602 273668,220060 271383,219271 268489,219257 266034,219244 263967,219818 262262,221010 260552,222170 259294,223884 258511,226121 257722,228347 257301,233206 257263,240689 L 257195,253961 z"
     class="fil8" /></g>
</svg>