<?xml version="1.0" encoding="UTF-8" standalone="no"?>
<!-- Created with Inkscape (http://www.inkscape.org/) -->
<svg id="svg2" xmlns:rdf="http://www.w3.org/1999/02/22-rdf-syntax-ns#" xmlns="http://www.w3.org/2000/svg" xml:space="preserve" height="48.985" viewBox="0 0 200 48.984825" width="200" version="1.1" xmlns:cc="http://creativecommons.org/ns#" xmlns:dc="http://purl.org/dc/elements/1.1/"><metadata id="metadata8"><rdf:RDF><cc:Work rdf:about=""><dc:format>image/svg+xml</dc:format><dc:type rdf:resource="http://purl.org/dc/dcmitype/StillImage"/><dc:title/></cc:Work></rdf:RDF></metadata><g id="g10" transform="matrix(1.25 0 0 -1.25 -119.82 168.98)"><path id="path56" d="m254.72 107.18h-0.20496v0.4299h0.28451c0.13677 0 0.28529-0.0474 0.28529-0.21044 0-0.21123-0.18967-0.21946-0.36484-0.21946zm0.52473 0.21946c0 0.22807-0.11208 0.35269-0.40051 0.35269h-0.48985v-1.2728h0.16067v0.55725h0.22847l0.38013-0.55725h0.18105l-0.38013 0.55725c0.17243 0.0298 0.32017 0.12776 0.32017 0.36289m-0.48946-1.2321c-0.52277 0-0.94405 0.42088-0.94405 0.94365s0.42128 0.94444 0.94405 0.94444c0.52238 0 0.94442-0.42167 0.94442-0.94444s-0.42204-0.94365-0.94442-0.94365zm0 2.0488c-0.6086 0-1.1043-0.49612-1.1043-1.1051 0-0.60859 0.49573-1.1039 1.1043-1.1039 0.60898 0 1.1051 0.49534 1.1051 1.1039 0 0.60899-0.49611 1.1051-1.1051 1.1051m-44.035 16.79c-0.89936 0-1.6255-0.70853-1.6326-1.5793-0.007-0.87742 0.7144-1.5969 1.6083-1.604l0.0126-0.1305v0.1305c0.88682 0 1.6134 0.70812 1.62 1.5789 0.006 0.87782-0.7148 1.5973-1.6083 1.6044m-56.546 0c-0.89936 0-1.6259-0.70853-1.6322-1.5793-0.007-0.87742 0.7144-1.5969 1.6079-1.604l0.0129-0.1305v0.1305c0.88604 0 1.6126 0.70812 1.6193 1.5789 0.007 0.87782-0.71441 1.5973-1.6079 1.6044m44.362 7.7894v0.00039-0.00039m-55.662-18.184c-0.705-2.8356-2.0562-6.2576-4.4925-6.4535-0.0682-0.005-0.13442-0.009-0.19829-0.009-1.0107 0-1.5773 0.66227-1.6843 1.9672-0.13403 1.6334 0.57058 3.5457 1.7936 4.8738 0.77906 0.84567 1.6576 1.3112 2.4736 1.3112h0.0165c1.0306-0.008 1.7525-0.83511 2.0844-1.6067l0.0176-0.0396-0.0106-0.0439zm22.34 15.857 0.0349 0.00079c0.22964 0 0.43146-0.11561 0.59997-0.34329 0.79944-1.0812 0.8112-5.0259-0.56353-9.5149-0.78611-2.5649-1.8426-4.9887-3.0555-7.0076l-0.1932-0.32135-0.0494 0.3719c-0.14303 1.0855-0.21318 2.2157-0.26295 3.1778-0.35073 6.7846 1.7016 13.544 3.4897 13.637zm-18.553-23.53c2.354 0.18928 4.2221 3.391 4.9158 4.7586l0.1787 0.35268 0.0678-0.38952c0.33271-1.9241 1.3794-5.1572 4.6536-5.1822h0.0274c1.4162 0 3.0234 0.86606 4.6469 2.5041l0.11913 0.12031 0.0866-0.14461c1.0934-1.8285 2.5598-2.8 4.1206-2.7204 2.2988 0.11952 3.6935 1.7482 3.8165 2.8795 0.0314 0.28842-0.0451 0.5596-0.20966 0.74301-0.20691 0.23042-0.5067 0.25746-0.72772 0.0462l-0.10464-0.0995c-0.5353-0.51376-1.5322-1.4711-2.6182-1.5279-1.33-0.065-2.3141 0.73007-2.9497 2.3713l-0.0263 0.069 0.0447 0.058c3.657 4.7837 6.2238 12.083 5.9707 16.979-0.11678 2.2658-0.77593 4.9671-3.2503 4.9671-0.0608 0-0.12227-0.002-0.18458-0.005-0.94835-0.049-1.8101-0.50043-2.5625-1.3422-2.296-2.5688-3.4975-8.8914-3.0614-16.108 0.0905-1.4993 0.35073-2.9007 0.77357-4.1637l0.0239-0.0701-0.0482-0.0568c-1.3571-1.586-2.6962-2.4598-3.7707-2.4598-2.5852 0-2.4982 4.3342-2.2937 7.9293 0.0443 0.77514 0.10972 1.2689-0.11953 1.5495-0.1642 0.20065-0.43811 0.29979-0.83744 0.30332l-0.047 0.00039c-0.91935 0-1.1122-0.18928-1.5828-1.5546-0.97931-2.8368-2.9121-7.5966-4.8566-7.5966-0.53922 0.005-0.9507 0.18888-1.2321 0.54785-0.94326 1.2042-0.2269 4.2068 0.34838 6.62 0.10346 0.43381 0.2026 0.85038 0.28764 1.236 0.12619 0.57215 0.0874 0.98951-0.11482 1.2423-0.2026 0.25158-0.60781 0.35386-1.1419 0.31154-0.83315-0.0666-1.3653-0.41539-1.6224-1.999l-0.0517-0.32918-0.19358 0.23396c-0.36367 0.53688-1.073 1.1768-2.3889 1.1768-0.1156 0-0.23474-0.005-0.35818-0.0145-1.4045-0.11521-3.0042-1.0941-4.1747-2.5543-1.3669-1.7055-2.0194-3.8639-1.8379-6.0773 0.01-0.11717 0.0266-0.22964 0.0435-0.34133l0.009-0.0619-0.0423-0.047c-0.81786-0.89074-1.651-1.3422-2.4763-1.3422-1.2736 0.01-2.0049 0.95658-2.0049 2.5331 0 2.6554 1.7991 10.658 1.7991 13.555 0 3.0833-1.3739 4.7621-3.7597 4.7802l-0.0361 0.00039c-3.4834 0-6.1988-3.9533-8.797-12.086-0.23787-0.74497-0.4965-1.6051-0.7187-2.3489l-0.36445-1.2234 0.10816 1.2717c0.2414 2.8333 0.40717 5.5894 0.4926 8.193 0.12931 3.9306-0.40207 6.4602-1.6244 7.733-0.65954 0.68658-1.5319 1.0248-2.6683 1.0338h-0.0302c-4.2629 0-6.305-7.1898-7.7918-12.263-0.44871-1.5315-1.3336-4.9859-1.9241-7.347l0.34994 0.56861c0.26217 2.9736 1.022 10.422 0.97226 14.463-0.0537 4.3346-1.4974 6.2783-4.681 6.3026h-0.0392c-1.7008 0-2.8803-0.84489-3.5708-1.5542-1.1082-1.138-1.7991-2.8012-1.7607-4.2374 0.02351-0.87311 0.55961-1.6506 0.9656-1.6506 0.26452 0 0.41108 0.35309 0.47457 0.56352 0.9848 3.2562 2.2596 4.8393 3.8961 4.8393 0.67835-0.005 1.1831-0.20534 1.5616-0.61133 1.2779-1.3712 1.0455-5.0737 0.62388-11.795-0.13599-2.1663-0.29-4.6211-0.4201-7.4132-0.0223-0.47928-0.0521-0.94131-0.0803-1.3814-0.12462-1.939-0.22298-3.4713 0.51219-3.5853 0.95698-0.14931 1.5801 0.23983 1.8983 1.1866 0.47261 1.4053 1.5326 5.2457 3.5838 12.264 1.968 6.7349 3.4548 9.1853 5.357 9.1853 2.1977 0 2.3615-3.7734 1.9586-11.736-0.0858-1.6878-0.20064-3.5998-0.28882-5.6807-0.0121-0.29274-0.0263-0.57568-0.0396-0.84882-0.0846-1.7231-0.15126-3.0825 0.34055-3.6037 0.15362-0.16224 0.36249-0.24257 0.63877-0.24414 0.95266 0 1.2387 0.8351 1.7137 2.2196 0.0839 0.24414 0.17281 0.50514 0.27196 0.77867 3.2644 9.005 5.6784 16.818 8.918 16.818 0.97187 0 1.7274-0.78924 1.7274-2.3289 0-3.5532-1.7368-10.419-1.7368-13.9 0-1.247 0.35857-2.367 1.0369-3.1535 0.69597-0.80767 1.6698-1.2387 2.816-1.2478h0.0251c1.084 0 2.2137 0.52669 3.3576 1.5652l0.10738 0.0972 0.0862-0.11639c0.7532-1.0126 1.9692-1.5566 3.2816-1.4554 2.0135 0.15675 3.7029 1.9492 4.3315 3.6402l0.12266 0.33036 0.12305-0.33036c0.46633-1.2548 1.4766-2.7663 3.6355-2.5919m102.02 8.6038v0.002-0.002m-4.7433-5.056-0.0243 0.0443-0.0486 0.15401 0.0223 0.0459c1.5252 3.1429 3.2726 4.9444 4.7939 4.9444h0.0157c1.7172-0.0129 2.9046-1.5581 2.8882-3.7566-0.0114-1.4672-0.65836-2.3121-1.198-2.7624-0.61682-0.51415-1.4374-0.80806-2.2529-0.80806-2.0096 0.0153-3.389 1.171-4.1963 2.1385zm-0.41618-11.864c-0.24531-0.32683-0.58703-0.4922-1.015-0.4922-0.49142 0.0039-0.86057 0.17517-1.1118 0.51062-0.70382 0.94052-0.50553 3.1503 0.64268 7.1624 0.13676 0.47927 0.28607 0.96129 0.44322 1.4327l0.13324 0.4005 0.11678-0.4052c1.3387-4.6313 1.604-7.5276 0.79081-8.6088zm-49.17 21.333c0.0451 1.0001 0.12893 1.9739 0.24845 2.8944 0.77476 5.9339 2.392 10.078 3.9341 10.078h0.007c0.73517-0.005 1.1031-0.56156 1.0953-1.6518-0.0208-2.6793-1.7184-6.515-5.0451-11.401l-0.26021-0.38248 0.0208 0.46242zm53.957-13.535 0.0541-0.00078c3.2377 0 5.5169 2.2435 5.5412 5.4542 0.0121 1.5899-0.44675 3.0449-1.2932 4.0963-0.89466 1.113-2.1471 1.7066-3.6226 1.718h-0.0294c-1.9912 0-3.84-1.5103-5.6525-4.6187l-0.14422-0.24806-0.0929 0.27079c-0.45772 1.3328-0.86528 2.4426-1.109 3.106-0.17047 0.4632-0.2461 0.67129-0.26373 0.73869-0.087 0.33624-0.37463 0.54511-0.75123 0.54511-0.23161 0-0.47771-0.0788-0.71088-0.2269-0.23082-0.14656-0.35975-0.32644-0.40599-0.56627l-0.0118-0.0361c-1.814-5.6568-3.3098-8.4047-4.5768-8.4047-0.18418 0.002-0.32839 0.0619-0.43577 0.18143-0.33191 0.3668-0.2504 1.2391-0.13755 2.4469 0.0827 0.88723 0.17752 1.892 0.13794 2.9575-0.0752 2.0491-1.196 3.2796-2.9987 3.2934-2.2905 0.00078-3.7754-2.4383-4.4592-3.8926l-0.20417-0.4342-0.0451 0.4777c-0.17086 1.7995-0.77475 3.949-2.6816 3.9635-2.2243 0-3.9188-2.6103-4.9526-4.8009l-0.27706-0.58704 0.0278 0.64856c0.12305 2.9215 0.22376 4.6465 0.2994 5.1246 0.0756 0.48005 0.0357 0.80218-0.1211 0.98676-0.14852 0.17282-0.42911 0.23668-0.84058 0.21083-0.71205-0.0451-1.0761-0.47849-1.6244-1.9312-0.90015-2.3858-3.1907-7.9364-5.0196-7.9364-0.36288 0.002-0.65013 0.12619-0.86057 0.3672-0.76691 0.87938-0.46007 3.2561-0.0357 6.5456l0.0321 0.24884c0.20065 1.5573-0.14186 1.8897-0.98715 2.0452-0.0913 0.0165-0.1779 0.0255-0.25745 0.0255-0.67522 0-0.99147-0.64739-1.622-2.445-1.1231-3.1993-2.5664-6.564-4.2554-6.564-0.0619 0-0.12306 0.005-0.18458 0.0145-0.89505 0.15244-0.87546 1.4797-0.85038 3.1613 0.0129 0.90917 0.0282 1.9402-0.11207 2.8709-0.25198 1.6698-1.2364 2.713-2.5684 2.7232-2.6589 0-4.4522-3.4047-5.2857-5.4342l-0.18928-0.45929-0.0627 0.49299c-0.11169 0.88017-0.25903 2.2745-0.32291 3.9239l-0.002 0.049 0.0302 0.0384c4.9757 6.2634 7.2083 10.783 7.238 14.656 0.0192 2.474-1.1227 3.96-3.0531 3.9749-1.4116 0-4.7688-1.1756-5.935-12.068-0.2167-2.0201-0.33544-4.0912-0.35308-6.1561l-0.00039-0.0404-0.0231-0.0329c-2.276-3.2953-7.135-8.9627-11.891-8.9627-4.2982 0-7.7271 3.4772-7.7271 9.6144 0 8.2279 5.8241 13.28 10.207 13.28l0.036-0.00039c0.95227-0.007 1.769-0.27314 2.3619-0.76926 0.61564-0.51494 0.93738-1.2368 0.93111-2.0872-0.009-1.1361-0.37856-1.72-0.73634-2.2839-0.0921-0.14539-0.1834-0.2896-0.26726-0.44243-0.0846-0.15401-0.16185-0.37817-0.0494-0.5698 0.11521-0.19633 0.40951-0.32017 0.76808-0.32252 1.0432 0 2.6213 1.5099 2.6385 3.7856 0.018 2.3815-1.9884 4.835-5.5671 4.835-5.4166 0-12.711-5.9499-12.711-15.593 0-6.8215 4.277-11.536 10.071-11.536 4.1112 0 8.1782 2.9434 11.78 7.8604l0.22063 0.29783 0.0157-0.37032c0.0768-1.7995 0.20729-3.2177 0.30291-4.2535 0.0615-0.6658 0.1062-1.1466 0.10385-1.4119-0.004-0.58194 0.0905-0.98519 0.29117-1.2332 0.19986-0.24806 0.51885-0.36523 1.0009-0.36876 0.80923 0 0.97108 0.55177 1.2912 1.912l0.0925 0.38874c0.39776 1.6486 1.8681 7.0292 4.0799 7.0292 0.36131-0.003 0.63955-0.11012 0.83745-0.31977 0.48829-0.51806 0.43538-1.5812 0.37347-2.8129-0.0388-0.76847-0.0788-1.562-0.002-2.3352 0.20848-2.0872 1.1094-3.1076 2.7553-3.1198 1.6898-0.00078 3.4529 1.8195 4.3832 3.5109l0.17595 0.31938 0.0682-0.35818c0.17203-0.90486 0.94012-3.8761 3.3451-3.8761 2.18 0 4.0497 2.2952 6.0996 7.0194l0.26805 0.61682-0.0165-0.67286c-0.0439-1.7901-0.14068-3.976-0.14147-5.6658-0.00078-1.3073 0.13128-1.8066 0.73556-1.8066 0.0431 0 0.0893-0.006 0.13716-0.006 0.5796 0 0.97305 0.34564 1.1694 1.0299 1.542 5.3754 2.8752 7.8792 4.1959 7.8792 1.2932-0.0102 1.4147-2.3744 1.5182-6.5526l0.007-0.29312c0.0314-1.4609 0.0839-2.1079 0.99185-2.1146 0.68893 0 0.86018 0.54119 1.2164 1.8736 0.0678 0.25394 0.14225 0.53256 0.22925 0.83353 1.245 4.3205 2.2776 6.0832 3.5626 6.0832 1.1004-0.008 1.1615-1.1427 1.1819-1.5154 0.0423-0.79827-0.04-1.6341-0.11914-2.4406-0.0737-0.75006-0.15009-1.5256-0.12109-2.2474 0.0674-1.6898 0.99264-2.6276 2.6056-2.6397 2.0934 0 3.9831 2.4485 5.638 7.2757l0.11482 0.33701 0.13128-0.33074c0.29979-0.75869 0.69089-1.7858 1.0534-3.0112l0.0137-0.0466-0.0196-0.0443c-1.6024-3.5583-2.733-7.5222-2.749-9.6395-0.0216-2.789 1.2403-4.6015 3.215-4.6168h0.0341c1.0742 0 3.5779 0.43107 3.6265 4.4224 0.0196 1.6357-0.3668 3.9486-1.1478 6.8756l-0.0894 0.33545 0.28842-0.19242c0.99694-0.6611 2.1212-1.0154 3.2522-1.0248m-107.54 9.7504v0.00079-0.00079" fill="#030404"/></g></svg>
